<?xml version="1.0" encoding="UTF-8"?>
<svg id="Layer_1" data-name="Layer 1" xmlns="http://www.w3.org/2000/svg" width="78.56" height="74.39" viewBox="0 0 78.56 74.39">
  <defs>
    <style>
      .cls-1 {
        fill: none;
        stroke: #000;
        stroke-linecap: round;
        stroke-linejoin: round;
        stroke-width: 2px;
      }
    </style>
  </defs>
  <path class="cls-1" d="m74.22,59.04c-2.45-.77-4.18-.12-6.67-.11-18.87.08-37.75.03-56.62.06-1.83,0-3.68-.13-5.49-.17-2.28-.05-3.16,1.09-3.51,2.62-.64,2.83-1.1,5.75-.87,8.68.11,1.4.23,2.72,2.44,2.84,1.63.09,3.28.43,4.95.43h62.94c5.1-.03,7.19-2.5,5.69-7.31-.65-2.08-1.11-5.23-2.86-7.04-.67-.69-1.29-4.93-1.21-5.76-.09-4.99-.14-7,0-12.21.12-4.79-.22-8.83-.71-13.63-.23-2.27.55-3.99.18-6.24.27-2.14.07-3.79-2.67-3.84-3.39-.06-8.22.04-11.61.04"/>
  <path class="cls-1" d="m57.96,24.68c.18-5.44,0-5.45,0-8.38,0-3.36-1.31-6.33-3.44-8.32C49.01,2.85,42.54-.48,34.58,1.66c-5.85,1.57-10.57,4.93-13.65,10.09-.38,2.42-.38,10.8-.38,12.4"/>
  <path class="cls-1" d="m19.73,17.66c-3.57-.54-7.15-.21-10.72,0-2.47.15-1.11,1.37-1.4,3.72-.56,4.63-1.07,8.85-.8,13.54-.28,2.43-.42,5.57-.45,8.02-.05,4,0,7.29-.8,11.23-.35,1.7-.25,1.9-.12,4.64"/>
  <path class="cls-1" d="m20.55,17.12c7.96.79,15.94.48,23.91.55,4.41.04,8.81-.14,13.19-.55"/>
</svg>