<?xml version="1.0" encoding="UTF-8"?>
<svg id="Layer_1" data-name="Layer 1" xmlns="http://www.w3.org/2000/svg" width="5.88" height="21.83" viewBox="0 0 5.88 21.83">
  <path d="m2.03,2.42c.08-.03.16-.07.24-.1,1.26-.38,1.99.26,1.91,1.86-.08,1.63.21,3.18.54,4.69.76,3.49,1.08,7,.77,10.58-.04.43.21.79.12,1.28-.09.48-.25.77-.6.75-.54-.02-1.05.21-1.62,0-.75-.29-1.55.04-2.33.03-.56,0-.89-.23-.81-.99.15-1.4.06-2.81.08-4.21.01-1.04,0-2.09,0-3.13,0-.26-.04-.51.07-.79.58-1.48.49-3.15.88-4.7.31-1.23.41-2.52.33-3.81-.01-.22.05-.39.14-.6.21-.46.22-.89-.13-1.38-.49-.69-.21-1.33.54-1.56.25-.08.5,0,.72-.06.54-.12,1.06-.03,1.26.57.17.51.07,1.15-.37,1.55" style="fill: none; stroke: #000; stroke-linecap: round; stroke-linejoin: round; stroke-width: .5px;"/>
  <path d="m5.41,19.65c-1.64.15-3.27.16-4.91,0" style="fill: none; stroke: #000; stroke-linecap: round; stroke-linejoin: round; stroke-width: .5px;"/>
  <path d="m.91,11.42c.24.25.54.27.8.18.82-.27,1.61-.19,2.42.09.26.09.58-.11.88-.17" style="fill: none; stroke: #000; stroke-linecap: round; stroke-linejoin: round; stroke-width: .5px;"/>
</svg>