<?xml version="1.0" encoding="UTF-8"?>
<svg id="Layer_1" data-name="Layer 1" xmlns="http://www.w3.org/2000/svg" width="11.2" height="26.73" viewBox="0 0 11.2 26.73">
  <path d="m4.3,8.29C.31,12.51.14,17.89.28,23.16c.07,2.41.95,3.39,3.43,3.32,7.13-.2,7.02,1.2,7.23-6.62.12-4.42-1.31-7.98-3.86-11.36" style="fill: none; stroke: #000; stroke-linecap: round; stroke-linejoin: round; stroke-width: .5px;"/>
  <path d="m5.8,3c2.03.03,1.68-1.6,1.77-2.75h-3.86c-.02,1.57.02,3.03,2.1,2.75" style="fill: none; stroke: #000; stroke-linecap: round; stroke-linejoin: round; stroke-width: .5px;"/>
  <path d="m5.51,15.29c.84,0,1.18-.26,1.28-1.34.1-.59-.66-1-1.67-.95-1.16.02-1.01,2.27.32,2.29" style="fill: none; stroke: #000; stroke-linecap: round; stroke-linejoin: round; stroke-width: .5px;"/>
  <path d="m6.97,3.12c.2,2.16.78,5.18-1.29,6.5-2.41-1.62-1.22-4.64-1.34-6.59" style="fill: none; stroke: #000; stroke-linecap: round; stroke-linejoin: round; stroke-width: .5px;"/>
</svg>