<?xml version="1.0" encoding="UTF-8"?>
<svg id="Layer_1" data-name="Layer 1" xmlns="http://www.w3.org/2000/svg" width="20.97" height="17.63" viewBox="0 0 20.97 17.63">
  <path d="m19.86,5.12c.24,2.8.54,5.59.71,8.39.16,2.51-1.13,3.82-3.64,3.62-3.06-.24-6.3.95-9.13-1.08-1.15-.83-1.45.53-2.19.77-1.31.41-2.47.73-3.69-.36-1.1-.98-1.05-1.59-.04-2.64.44-.45.09-1.49-.64-2.15-1.46-1.32-.64-3.13-.71-4.72-.1-2.16,1.93-1.88,3.15-2.7,2.45-1.64,4.96-2.81,7.77-3.51,4.02-1,6.1.02,8.04,4.02" style="fill: none; stroke: #000; stroke-linecap: round; stroke-linejoin: round; stroke-width: .75px;"/>
  <ellipse cx="9.65" cy="6.08" rx=".97" ry="1.05" style="fill: none; stroke: #000; stroke-linecap: round; stroke-linejoin: round; stroke-width: .75px;"/>
  <circle cx="6.07" cy="12.83" r="1.13" style="fill: none; stroke: #000; stroke-linecap: round; stroke-linejoin: round; stroke-width: .75px;"/>
  <ellipse cx="14.87" cy="11.79" rx="1.8" ry="1.75" style="fill: none; stroke: #000; stroke-linecap: round; stroke-linejoin: round; stroke-width: .75px;"/>
  <rect x="1.46" y="6.08" width="4.6" height=".01" style="fill: none; stroke: #000; stroke-linecap: round; stroke-linejoin: round; stroke-width: .75px;"/>
  <rect x="14.71" y="5.41" width="4.07" height=".09" style="fill: none; stroke: #000; stroke-linecap: round; stroke-linejoin: round; stroke-width: .75px;"/>
</svg>