<?xml version="1.0" encoding="UTF-8"?>
<svg id="Layer_1" data-name="Layer 1" xmlns="http://www.w3.org/2000/svg" width="11.45" height="26.98" viewBox="0 0 11.45 26.98">
  <path d="m3.91,3.03c.44-.03.89-.06,1.33-.09.41-.03.82.02,1.18.19.25.12.36.03.53-.1.67-.51.77-1.19.66-1.93-.05-.36-.37-.7-.76-.71-1-.02-2-.07-2.99.05-.49.06-.77.44-.94.84-.16.39-.04.73.32.98.05.04.1.09.14.13.37.34.57.7.3,1.22-.18.34-.12.77-.11,1.16.01.79-.02,1.58.04,2.37.03.32.11.61.25.89.09.18-.04.33-.16.5-.25.37-.43.63-.66,1.03q-.05.09-.13.21c-.54.82-1.1,1.53-1.47,2.39-.09.21-.18.45-.3.73-.19.43-.26.58-.42.99-.24.6-.27,1.24-.33,1.88-.08.98.16,1.48.14,2.46-.01.31-.03.39-.02.67.05,1.27-.02,1.92.22,3.29,0,.25,0,.54.02.78.03.49.03.65-.04,1.1-.15.98-.37,1.43.12,2.02.24.29.62.38,1.04.37,2.25-.02,2.59,0,4.84,0,1.2.03,1.93.13,3,.15.63.02,1.37-.24,1.37-1.26-.07-1.61-.04-1.24-.31-2.26-.06-.49-.1-.59-.14-.96-.14-1.22-.13-1.98-.12-3.3,0-.27-.04-.26,0-.54-.04-.71,0-1.24.04-1.92.02-.31-.04-.7-.08-.94-.09-.56-.14-.87-.21-1.52-.13-.31-.13-.54-.25-.81-.2-.44-.29-.52-.67-1.11-.2-.32-.03-.06-.24-.4-.23-.37-.33-.5-.52-.86-.4-.74-.31-.53-.54-1.05-.29-.66-.17-.41-.56-1.18" style="fill: none; stroke: #000; stroke-linecap: round; stroke-linejoin: round; stroke-width: .75px;"/>
  <path d="m.74,22.7c3.07.1,5.85-.14,8.92-.11.24,0,.79-.03,1.03-.04" style="fill: none; stroke: #000; stroke-linecap: round; stroke-linejoin: round; stroke-width: .75px;"/>
  <path d="m10.47,18.57c-.93-.03-1.82.02-2.66.03-2.23.04-4.47-.05-6.7.04-.22,0-.33,0-.59,0" style="fill: none; stroke: #000; stroke-linecap: round; stroke-linejoin: round; stroke-width: .75px;"/>
  <path d="m6.71,3.26c.07.45.1.89.1,1.34-.02,1.07.24,1.57.23,2.77,0,.2.25.98.06.98-.81.01-1.94-.14-2.71-.05-.11.01-.39-.06-.5-.08" style="fill: none; stroke: #000; stroke-linecap: round; stroke-linejoin: round; stroke-width: .75px;"/>
  <path d="m5.68,12.39c-.78,0-1.13.3-1.42.95-.18.66-.19,1.12.14,1.46.27.29.17.34.46.55.61.16.72.12,1.1-.05.95-.42,1.44-.92,1.15-1.88-.15-.5-.84-1.01-1.38-1.03" style="fill: none; stroke: #000; stroke-linecap: round; stroke-linejoin: round; stroke-width: .75px;"/>
</svg>