<?xml version="1.0" encoding="utf-8"?>
<!-- Generator: Adobe Illustrator 27.9.0, SVG Export Plug-In . SVG Version: 6.00 Build 0)  -->
<svg version="1.1" id="Layer_1" xmlns="http://www.w3.org/2000/svg" xmlns:xlink="http://www.w3.org/1999/xlink" x="0px" y="0px"
	 viewBox="0 0 12.2 27.4" style="enable-background:new 0 0 12.2 27.4;" xml:space="preserve">
<style type="text/css">
	.st0{fill:none;stroke:#000000;stroke-linecap:round;stroke-linejoin:round;}
</style>
<g>
	<path class="st0" d="M3.9,4.7c2.6,0,5.2,1.5,6.1-2.5c0.1-2.1-5-1.9-6.8-1.4c-2.4,0.5,0.9,3,0.9,7.6c-0.7,2.2-2.5,1.1-3.6,1.4v17
		h11.2v-17c-5,0.1-3.1-2.4-3.4-4.8"/>
	<path class="st0" d="M9.1,18c-0.2-1.2-0.2-2.3-2.2-2.6c-2.6,0-3.5-0.2-4.1,1.9c-0.3,1.8,0.6,3,2.5,3.2c2.1,0.2,3.1,0.1,3.5-1.8"/>
	<path class="st0" d="M6.1,5.1c0.1,1.8,0,4.7,0,6.7"/>
</g>
<polygon class="st0" points="1.4,17.5 3.1,17.5 3.1,17.5 "/>
<rect x="9.8" y="17.8" class="st0" width="1.4" height="0.1"/>
</svg>
