<?xml version="1.0" encoding="UTF-8"?>
<svg id="Layer_1" data-name="Layer 1" xmlns="http://www.w3.org/2000/svg" width="27.72mm" height="26.03mm" viewBox="0 0 78.57 73.8">
  <defs>
    <style>
      .cls-1 {
        fill: none;
        stroke: #000;
        stroke-linecap: round;
        stroke-linejoin: round;
        stroke-width: 2px;
      }
    </style>
  </defs>
  <path class="cls-1" d="m39.49,72.8c6.5-5.88,9.54-8.9,14.29-13.28,6.42-5.93,12.79-12.15,18-19.55,8.89-12.64,7.24-23.94-2.85-34.45-6.39-6.66-16.79-5.65-23.34,1.09-.68.7-1.41,1.33-2.09,2.02-4.4,4.47-4.74,4.36-9.11-.38C30.39,3.92,25.78.4,20.08,1.09,12.95,1.95,7.08,5.88,3.7,13.48c-1.59,3.57-3.02,7.15-2.63,11.65.64,7.33,3.66,13.01,7.86,18.05,2.96,3.56,6.23,6.78,9.41,10.09,5.45,5.66,10.1,10.3,16.02,15.44,3.44,2.98,4.19,3.37,5.14,4.1"/>
</svg>