<?xml version="1.0" encoding="UTF-8"?>
<svg id="Layer_1" data-name="Layer 1" xmlns="http://www.w3.org/2000/svg" width="25.22" height="24.31" viewBox="0 0 25.22 24.31">
  <path d="m24.01,7.94c.16-2.25.24-4.36.21-6.94h-9.52c.67,5.46-2.48,11.43,4.74,15.44,1.56-1.05,3.45-1.25,4.4-3.42.27-2.52.12-3.12.27-4.66" style="fill: none; stroke: #000; stroke-linecap: round; stroke-linejoin: round; stroke-width: 2px;"/>
  <path d="m22.53,23.31h-4.78c-2.94-3-5.24-6.04-8.2-8.1-1.86-1.3-4.71-1.14-7.81-1.78-.28,3.58-.5,6.33-.74,9.51h15.65" style="fill: none; stroke: #000; stroke-linecap: round; stroke-linejoin: round; stroke-width: 2px;"/>
  <path d="m15.17,7.56c2.82.12,5.64.25,8.47.38" style="fill: none; stroke: #000; stroke-linecap: round; stroke-linejoin: round; stroke-width: 2px;"/>
  <path d="m19.22,16.56v6" style="fill: none; stroke: #000; stroke-linecap: round; stroke-linejoin: round; stroke-width: 2px;"/>
  <path d="m5.97,18.06l3.31,4.5" style="fill: none; stroke: #000; stroke-linecap: round; stroke-linejoin: round; stroke-width: 2px;"/>
  <path d="m3.4,14.69c.93.95.53,1.31,2.88,3.95" style="fill: none; stroke: #000; stroke-linecap: round; stroke-linejoin: round; stroke-width: 2px;"/>
</svg>