<?xml version="1.0" encoding="UTF-8"?>
<svg id="Layer_1" data-name="Layer 1" xmlns="http://www.w3.org/2000/svg" width="66.75" height="37.5" viewBox="0 0 66.75 37.5">
  <path d="m66.65,34.42c.29,2.01.13,3.1-2.62,3.07-20.58-.16-41.15-.11-61.73-.04-1.87,0-2.31-.42-2.3-2.29.1-10.96.1-21.92,0-32.88C-.02.42.42,0,2.3,0c20.7.08,41.4.08,62.11,0,1.87,0,2.32.42,2.3,2.29-.12,7.97-.05,15.94-.05,23.91-4.61,1.97-8.38-.35-12.18-2.41-.65-.35-1.25-.89-1.65-1.49-6.38-9.67-16.86-11.7-26.96-14.27-4.1-1.04-8.06-2.56-12.23-3.31-1.19-.21-2.33-.94-3.83-.14.96,2.59,3.45,3.7,5.24,5.41,1.26,1.2,2.92,1.89,4.37,2.86,1.5,1.01,4.01,2.09,2.97,4.07-1.16,2.21-3.54.69-5.31-.03-2.07-.85-4.07-1.86-5.98-3.05-1.25-.78-2.54-1.54-4.41-1.92,1.06,3.33,3.14,5.5,5.34,7.65,6.6,6.46,15.16,8.44,23.72,9.92,4.58.79,8.64,3.11,13.32,3.42,5.88.38,11.59,2.71,17.61,1.53Z" style="fill: #fefefe; stroke-width: 0px;"/>
  <path d="m66.75,34.71c-2.49-.09-4.98,1.43-7.63,1.02-11.5-1.8-22.74-4.84-33.99-7.7-8.49-2.16-15.48-7.25-19.72-15.36-.32-.61-1.2-1.21-.36-1.87.71-.56,1.68-.39,2.48.03,3.29,1.73,6.54,3.54,9.86,5.19,1.37.68,2.79,1.72,4.96.63-4.58-4.81-11.62-6.64-14.7-13.13,4.03-1.61,7.67.49,11.04,1.52,7.57,2.32,15.37,3.84,22.84,6.59,3.76,1.38,6.69,3.66,8.81,6.48,4.2,5.62,10.56,10.78,16.4,13.6v2.99Z" style="fill: #edda78; stroke-width: 0px;"/>
</svg>