<?xml version="1.0" encoding="UTF-8"?>
<svg id="Layer_1" data-name="Layer 1" xmlns="http://www.w3.org/2000/svg" viewBox="0 0 66.75 37.5">
  <path d="m66.75,34.71c-2.49-.09-4.98,1.43-7.63,1.02-11.5-1.8-22.74-4.84-33.99-7.7-8.49-2.16-15.48-7.25-19.72-15.36-.32-.61-1.2-1.21-.36-1.87.71-.56,1.68-.39,2.48.03,3.29,1.73,6.54,3.54,9.86,5.19,1.37.68,2.79,1.72,4.96.63-4.58-4.81-11.62-6.64-14.7-13.13,4.03-1.61,7.67.49,11.04,1.52,7.57,2.32,15.37,3.84,22.84,6.59,3.76,1.38,6.69,3.66,8.81,6.48,4.2,5.62,10.56,10.78,16.4,13.6v2.99Z" style="fill: #edda78; stroke-width: 0px;"/>
</svg>