<?xml version="1.0" encoding="UTF-8"?>
<svg id="Layer_1" data-name="Layer 1" xmlns="http://www.w3.org/2000/svg" width="19.69" height="28.21" viewBox="0 0 19.69 28.21">
  <path d="m8.05,6.11c.02,1.81.48,3.48-1.41,4.52-1.26.69-2.69,1.73-3.22,2.98-1.27,3-2.4,6.15-2.92,9.35-.57,3.55.83,4.82,4.28,4.85,3.53.03,7.06-.04,10.59.02,2.34.04,4.22-1.02,3.92-3.38-.68-5.26-.45-11.1-6.45-13.93-2.37-1.12-.97-3.2-.62-5.1.38-2.09,4.77-4.03.31-4.86-1.91,0-2.78-.43-5.15.02-3.03,1.4,1.02,3.32.67,5.52" style="fill: none; stroke: #000; stroke-linecap: round; stroke-linejoin: round; stroke-width: .75px;"/>
  <path d="m7.13,15.42c-.17,1.32-.13,3.32-.24,4.8,5.79-.03,6.63.59,6.63-.57,0-3.92-.07-1.29,0-3.14-.09-.6.11-.74-.16-1.09h-6.13" style="fill: none; stroke: #000; stroke-linecap: round; stroke-linejoin: round; stroke-width: .75px;"/>
</svg>