<?xml version="1.0" encoding="UTF-8"?>
<svg id="Layer_1" data-name="Layer 1" xmlns="http://www.w3.org/2000/svg" width="27.72mm" height="26.24mm" viewBox="0 0 78.57 74.39">
  <defs>
    <style>
      .cls-1 {
        fill: none;
        stroke: #000;
        stroke-linecap: round;
        stroke-linejoin: round;
        stroke-width: 2px;
      }
    </style>
  </defs>
  <g>
    <path class="cls-1" d="m5.71,70.56c3.62-.4,7.24-.68,10.52-2.59,1.31-.77,2.63-.49,4.14.27,8.51,4.28,17.38,6.53,26.97,4.21,11.1-2.69,19.71-9.03,25.77-18.45,4.57-7.1,5.4-15.73,3.54-23.48-2.28-9.53-7.75-17.9-16.57-23.31C52.14,2.34,43.5.29,34.21,1.21c-1.26.12-2.53.4-3.75.75C19.92,4.99,11.11,10.82,5.91,20.43,2.46,26.78-.13,33.91,1.5,41.71c.58,2.78,1.58,5.29,2.64,7.88,1.79,4.37,2.1,8.85.51,13.5-.99,2.87-.84,5.92,1.05,8.6"/>
    <path class="cls-1" d="m29.33,27.82c1.87-3.66,4.11-6.99,8.63-7.47,4.87-.52,9.17,2.35,10.5,6.72,1.01,3.32-1.32,9.51-4.92,11.14-3.99,1.8-4.64,4.64-4.08,8.36"/>
  </g>
  <ellipse class="cls-1" cx="39.98" cy="52.72" rx=".7" ry="1.43"/>
</svg>