<?xml version="1.0" encoding="UTF-8"?>
<svg id="Layer_1" data-name="Layer 1" xmlns="http://www.w3.org/2000/svg" width="66.75" height="37.5" viewBox="0 0 66.75 37.5">
  <path d="m.09,26.22V.06c21.32,0,42.65.04,63.97-.06,1.5,0,2.7,1.21,2.68,2.71-.14,10.94-.11,21.89-.02,32.84,0,1.07-.85,1.93-1.92,1.93-20.95-.07-41.9-.11-62.85.03-3.09.02-1.51-1.9-1.87-3.06,9.28.54,18.12-1.46,26.97-4.09,3.99-1.19,8.22-1.89,12.34-2.81,9.24-2.07,16.25-7.13,21.44-15.98-4.21,1.22-7.03,3.73-10.4,5.04-1.39.54-2.71,1.29-4.25,1.32-.76.02-1.55-.09-1.93-.85-.37-.75,0-1.47.45-2.07,1.01-1.32,2.47-2.07,3.87-2.89,3.24-1.89,5.98-4.33,8.88-7.39-2.5-1.03-4.3.04-6.07.53-8.03,2.22-16.13,4.2-24.08,6.74-4.62,1.47-8.19,4.19-11.06,7.87-3.08,3.95-6.99,6.29-11.9,7.03-1.49.23-2.98.51-4.25-.66Z" style="fill: #fefefe; stroke-width: 0px;"/>
  <path d="m0,30.12c7.75-4.59,12.16-6.34,16.36-11.96,2.19-2.93,5.24-5.26,9.14-6.6,9.49-3.25,18.89-5.48,28.41-8.55,1.47-.48,3.6-2.17,5.57-1.99-2.16,4.32-5.92,8.92-9.42,11.33-1.88,1.3-5.72,3.02-4.92,4.13,1.56,2.16,3.93-.83,6.03-1.4,2.58-.7,4.44-2.71,6.88-3.67,1.14-.45,2.17-1.27,3.73-.59-2.03,6.9-7.3,10.88-13.07,14.27-5.87,3.45-12.52,4.47-19.12,5.55-4.28.7-8.23.19-12.7.41-3.18.16-7.79.32-10.92,1.34-2.51.81-1.56.27-5.89,2.05.02-2.77,0-1.69-.08-4.32Z" style="fill: #edda78; stroke-width: 0px;"/>
</svg>