<?xml version="1.0" encoding="UTF-8"?>
<svg id="Layer_1" data-name="Layer 1" xmlns="http://www.w3.org/2000/svg" viewBox="0 0 66.75 37.5">
  <path d="m0,30.12c7.75-4.59,12.16-6.34,16.36-11.96,2.19-2.93,5.24-5.26,9.14-6.6,9.49-3.25,18.89-5.48,28.41-8.55,1.47-.48,3.6-2.17,5.57-1.99-2.16,4.32-5.92,8.92-9.42,11.33-1.88,1.3-5.72,3.02-4.92,4.13,1.56,2.16,3.93-.83,6.03-1.4,2.58-.7,4.44-2.71,6.88-3.67,1.14-.45,2.17-1.27,3.73-.59-2.03,6.9-7.3,10.88-13.07,14.27-5.87,3.45-12.52,4.47-19.12,5.55-4.28.7-8.23.19-12.7.41-3.18.16-7.79.32-10.92,1.34-2.51.81-1.56.27-5.89,2.05.02-2.77,0-1.69-.08-4.32Z" style="fill: #edda78; stroke-width: 0px;"/>
</svg>