<?xml version="1.0" encoding="UTF-8"?>
<svg id="Layer_1" data-name="Layer 1" xmlns="http://www.w3.org/2000/svg" width="10.4" height="26.23" viewBox="0 0 10.4 26.23">
  <path d="m2.59.38h5.25c.04,2.51.02,4.15.13,6.05" style="fill: none; stroke: #000; stroke-linecap: round; stroke-linejoin: round; stroke-width: .75px;"/>
  <path d="m3.36,7.28c-1.09.86-1.9,1.59-2.98,2.44v16.13h9.41V8.98" style="fill: none; stroke: #000; stroke-linecap: round; stroke-linejoin: round; stroke-width: .75px;"/>
  <path d="m2.4,21.29c3.08,0,3.34.13,5.37,0" style="fill: none; stroke: #000; stroke-linecap: round; stroke-linejoin: round; stroke-width: .75px;"/>
  <path d="m4.92,11.63c-1.6.95-2.61,3.01-.22,3.95,2.85,1.09,3.83-3.98.31-3.92" style="fill: none; stroke: #000; stroke-linecap: round; stroke-linejoin: round; stroke-width: .75px;"/>
  <polygon points="2.15 21.29 2.16 21.29 2.16 19.04 2.15 20.04 2.15 21.29" style="fill: none; stroke: #000; stroke-linecap: round; stroke-linejoin: round; stroke-width: .75px;"/>
  <polygon points="7.77 21.1 7.77 21.1 7.77 19.94 7.77 18.9 7.77 21.1" style="fill: none; stroke: #000; stroke-linecap: round; stroke-linejoin: round; stroke-width: .75px;"/>
  <path d="m2.89,7.78c.83-1.22,1.32-1-.29-2.09-.34-1.36-.18-3.11,0-5.31" style="fill: none; stroke: #000; stroke-linecap: round; stroke-linejoin: round; stroke-width: .75px;"/>
  <path d="m9.79,12.5c.18-2.29.37-1.96.12-3.73-1.54-.62-4.41-.76-2.03-2.93" style="fill: none; stroke: #000; stroke-linecap: round; stroke-linejoin: round; stroke-width: .75px;"/>
</svg>