<?xml version="1.0" encoding="UTF-8"?>
<svg id="Layer_1" data-name="Layer 1" xmlns="http://www.w3.org/2000/svg" width="20.88" height="22.45" viewBox="0 0 20.88 22.45">
  <path d="m5.96,12.48c-1.58-.07-5,0-5.14,1.1-.36,2.71-.12,5.5-.12,8.61h18.03c0-3.62-.16-6.62-.16-9.78-2.63.23-3.21.07-3.21.07-.38-4.68,1.34-3.7-6.86-3.62-3.7.04-2.47-.81-2.9,3.42" style="fill: none; stroke: #000; stroke-linecap: round; stroke-linejoin: round; stroke-width: .5px;"/>
  <path d="m16.85,3.95c-1.6-1.05.45-3.83,1.87-3.7,2.36.13,2.09,1.96,1.47,2.78-.94,1.67-3.94.61-6.25.44-2.32-.17-4.67-.18-6.98,0-2.22.18-3.17.71-5.43.64C.19,3.69-.11,3,.68,1.5c1.4-2.27,3.83.04,2.93,2.46" style="fill: none; stroke: #000; stroke-linecap: round; stroke-linejoin: round; stroke-width: .5px;"/>
  <path d="m16.85,3.95c-.12,2.13.27,6.18.14,8.31" style="fill: none; stroke: #000; stroke-linecap: round; stroke-linejoin: round; stroke-width: .5px;"/>
  <path d="m3.62,3.96c.12,1.88.22,6.43.34,8.3" style="fill: none; stroke: #000; stroke-linecap: round; stroke-linejoin: round; stroke-width: .5px;"/>
</svg>