<?xml version="1.0" encoding="UTF-8"?>
<svg id="Layer_1" data-name="Layer 1" xmlns="http://www.w3.org/2000/svg" width="17" height="24.63" viewBox="0 0 17 24.63">
  <path d="m13.19,19.4c0-3.39.49-5.99-3.48-6.08-3.12,0-5.33.42-5.32,2.07.11,2.05-.48,4.17,1.25,4.17,3,0,4.84,0,7.55-.16" style="fill: none; stroke: #000; stroke-linecap: round; stroke-linejoin: round;"/>
  <path d="m10.22,5.08c3.11-.1,3.41-2.75,1.69-3.85s-5.76-.95-7.01.39c-1.61,1.73-.34,3.59,1.93,3.46" style="fill: none; stroke: #000; stroke-linecap: round; stroke-linejoin: round;"/>
  <path d="m6.9,6.38c-1.16,2.37-2.26,4.72-5.23,5.56-.98.28-1.2,1.38-1.17,2.51.25,10.74-1.49,9.62,9.03,9.5,1.74-.02,3.66.73,5.25-.69,2.72-2.43,2.11-10.42-1.16-12.04-2.22-1.09-3.11-2.64-3.33-4.84l.11-1.06" style="fill: none; stroke: #000; stroke-linecap: round; stroke-linejoin: round;"/>
  <ellipse cx="8.5" cy="6.47" rx="2.13" ry="1.38" style="fill: none; stroke: #000; stroke-linecap: round; stroke-linejoin: round;"/>
</svg>