<?xml version="1.0" encoding="UTF-8"?>
<svg id="Layer_1" data-name="Layer 1" xmlns="http://www.w3.org/2000/svg" width="93.98" height="173.72" viewBox="0 0 93.98 173.72">
  <path d="m73.68,53.58c.28,9.07-.47,19.7.49,30.3.38,4.21,2.11,7.62,4.58,11.17,3.58,5.15,7.24,10.3,10.54,15.7,4.99,8.18,4.9,16.51,4.55,25.24-.13,3.32-1.08,6.37-3.05,9.1-.8,1.1-1.52,2.32-1.99,3.6-2.55,7-8.06,11.14-13.57,15.75-8.11,6.77-17.88,7.21-27.29,9.05-5.22,1.02-10.3-1.57-15.38-2.75-12.67-2.95-21.1-10.79-27.38-22.13C1.34,141.68-.27,134.86.04,127.21c.21-5.19,1.56-9.75,3.95-14.53,3.65-7.31,8.8-13.44,13.22-20.13,1.78-2.69,2.4-5.73,2.57-8.9.81-15.11.19-30.24.37-45.36.04-3.37.34-6.79-.04-10.12-1-8.74,2.97-15.54,8.38-21.61C34.2.16,42.04-.32,49.94.12c8.8.49,14.76,4.78,19.53,12.45,3.09,4.96,4.18,9.69,4.2,15.09.04,8.12,0,16.25,0,25.92Zm-44.92,1.85h-.16c0,8.87-.15,17.74.04,26.61.21,10.08-5.23,17.51-10.76,25.17-5.59,7.62-7.45,13.92-8.76,21.8-.87,5.26,2.51,9.54,3.96,14.26,3.01,9.79,10.58,15.89,19.38,18.72,12.24,3.94,24.73,4.21,36.46-3.89,11.05-7.63,15.32-18.13,16.02-30.7.27-4.89-3.31-8.81-4.4-13.42-.59-2.51-2.31-4.29-3.69-6.36-3.42-5.13-8.52-9.25-9.98-15.6-1.43-6.22-2.41-12.49-2.38-18.91.08-13.87-.06-27.73.05-41.6.05-6.62-2.01-12.55-5.31-18.09-4.07-6.83-17.31-8.27-22.98-2.16-4.46,4.81-7.66,11.07-7.55,18.31.14,8.62.03,17.24.03,25.86Z" style="stroke-width: 0px;"/>
  <path d="m52.77,69.41c0,10.49-.1,20.97.04,31.46.08,6.41.99,12.31,5.92,17.51,5.75,6.06,5.62,15.34.72,22.16-2.68,3.73-7.04,4.62-11.24,5.24-6.49.96-12.65-2.47-15.69-8.3-3.89-7.48-3.36-14.17,2.87-20.25,4.24-4.14,5.25-8.85,5.27-14.19.07-20.35.06-40.69.14-61.04.01-3.36.2-6.74.57-10.08.27-2.44,1.13-4.78,4.17-4.9,2.9-.12,5.05,1.25,6.23,3.93.87,1.99.84,4.15.84,6.27.02,10.74.01,21.47.01,32.21.04,0,.09,0,.13,0Z" style="stroke-width: 0px;"/>
</svg>