<?xml version="1.0" encoding="UTF-8"?>
<svg id="Layer_1" data-name="Layer 1" xmlns="http://www.w3.org/2000/svg" width="27.72mm" height="26.24mm" viewBox="0 0 78.57 74.39">
  <defs>
    <style>
      .cls-1 {
        fill: none;
        stroke: #000;
        stroke-linecap: round;
        stroke-linejoin: round;
        stroke-width: 2px;
      }
    </style>
  </defs>
  <path class="cls-1" d="m14.43,63.85c1.7-2.98,3.3-6.02,5.13-8.93,1.24-1.97,3.08-3.5,5.07-4.83.71-.48,1.59-.81,2.16-1.4,4.28-4.42,9.85-3.99,15.31-3.54,2.92.24,4.72-.47,6.26-2.95,3.92-6.35,3.73-13.14,2.81-19.98-.89-6.67-5.91-10.9-12.69-10.22-6.1.61-10,3.93-10.52,10.91-.29,3.88-.2,7.8,0,11.69.13,2.52.94,4.96,2.87,6.87.93.92,1.71,1.91,2.18,3.11"/>
  <path class="cls-1" d="m23.17,3.99c-5.51,3.04-10.85,6.27-14.56,11.36C2.47,23.78-.23,32.82,1.53,43.23c1.16,6.87,3.96,12.99,8.71,17.7,5.9,5.85,12.78,10.91,22.01,12,2.88.34,6.09.69,8.88.2,8.7-1.53,17.32-2.39,23.73-9.48,2.29-2.53,4.9-4.71,6.81-7.68,7.93-12.3,7.67-24.44.33-36.88C64.22,5.93,51.83.9,36.64,1c-4.45.03-8.84,1.56-13.11,2.99"/>
  <path class="cls-1" d="m47.2,45.27c2.77,2.51,6.42,3.79,9.22,6.43,3.14,2.97,5.36,6.23,6.77,10.1.23.64.64.99,1.12,1.37"/>
</svg>