<?xml version="1.0" encoding="UTF-8"?>
<svg id="Layer_1" data-name="Layer 1" xmlns="http://www.w3.org/2000/svg" width="9.84" height="16.75" viewBox="0 0 9.84 16.75">
  <path d="m3.5,2.83v4.12C.59,7.3.17,8.84.26,11.49c.05,1.59.03,3.19.03,5.01h9.27c0-2.57.14-5.19-.18-7.73-.1-.84-.49-1.65-2.02-1.82-.25-.06-.63-.1-.94,0-.07-1.38-.15-2.76-.23-4.35h-3.01" style="fill: none; stroke: #000; stroke-linecap: round; stroke-linejoin: round; stroke-width: .5px;"/>
  <path d="m6.26,2.6c.52,0,.72-.67.67-1.42,0-1.26-4.93-1.3-4.74.25.06.71.31,1.26.88,1.17" style="fill: none; stroke: #000; stroke-linecap: round; stroke-linejoin: round; stroke-width: .5px;"/>
  <path d="m6.5,10.12h-3" style="fill: none; stroke: #000; stroke-linecap: round; stroke-linejoin: round; stroke-width: .5px;"/>
  <path d="m6.5,11.94h-3" style="fill: none; stroke: #000; stroke-linecap: round; stroke-linejoin: round; stroke-width: .5px;"/>
  <path d="m6.5,14c-.86,0-2,.05-2.86.05" style="fill: none; stroke: #000; stroke-linecap: round; stroke-linejoin: round; stroke-width: .5px;"/>
</svg>