<?xml version="1.0" encoding="UTF-8"?>
<svg id="Layer_1" data-name="Layer 1" xmlns="http://www.w3.org/2000/svg" width="10.88" height="22.45" viewBox="0 0 10.88 22.45">
  <path d="m6.82,5.53c.21.03.2-.12.19-.28-.03-.75-.05-1.51-.11-2.26-.02-.2-.03-.34.1-.5.27-.34.37-.74.35-1.21-.03-.62-.28-.96-.83-.99-.78-.04-1.56-.05-2.34-.06-.67,0-.86.24-.88.99-.01.47,0,.94.26,1.31.22.32.05.59.04.89-.02.68-.04,1.36-.05,2.04,0,.72-.41,1.25-1.03,1.31-.18.02-.34.08-.49.18-.41.25-.82.49-1.26.67-.48.21-.52.77-.53,1.25-.01.62.06,1.25.09,1.87.05,1.14.12,2.27.14,3.41.03,1.21.23,2.39.32,3.58.08.97.22,1.94.27,2.91.06,1.04.33,1.55,1.41,1.5.57-.03,1.14-.1,1.71-.17,1.24-.16,2.48,0,3.7.18,1.31.19,2-.44,1.96-1.83-.04-1.39.19-2.75.32-4.13.16-1.7.43-3.4.35-5.12-.03-.69.13-1.35.11-2.04-.05-1.36-.32-1.48-1.13-1.6-.03,0-.08.02-.1,0-.46-.56-1.11-.62-1.71-.83-.44-.15-.65-.53-.68-1.04" style="fill: none; stroke: #000; stroke-linecap: round; stroke-linejoin: round; stroke-width: .5px;"/>
  <path d="m6.82,2.72c-1.03-.17-2.06-.24-3.07.17" style="fill: none; stroke: #000; stroke-linecap: round; stroke-linejoin: round; stroke-width: .5px;"/>
  <path d="m4.92,13.18c-.68.25-1.26.98-1.26,1.65,0,1.05.65,1.97,1.8,1.87.02,0,.03-.05.05-.05,1.48-.11,1.54-.98,1.4-2.37-.05-.53-.8-1.08-1.35-1.1-.19,0-.39,0-.58,0" style="fill: none; stroke: #000; stroke-linecap: round; stroke-linejoin: round; stroke-width: .5px;"/>
</svg>