<?xml version="1.0" encoding="UTF-8"?>
<svg id="Layer_1" data-name="Layer 1" xmlns="http://www.w3.org/2000/svg" width="6.13" height="22.08" viewBox="0 0 6.13 22.08">
  <path d="m.51,17.75c-.05,1.13.02,2.03.04,3.29,0,.42.14.66.57.66,1.24-.02,2.48,0,3.73,0,.54,0,.94.1.9-1.11-.01-.91-.02-1.76-.04-2.81-.02-.2-.06-.39-.07-.54-.02-.49,0-.66,0-1.07,0-1.54,0-3.02,0-4.51v-1.09c0-.35.02-.6,0-.89-.05-.75-.01-.91-.09-1.49-.03-.19,0-.31-.02-.45-.02-.46-.26-.76-.55-1-.19-.16-.35-.37-.53-.54-.43-.4-.42-.92-.37-1.45.09-1.16.06-2.32,0-3.47-.04-.68-.3-.91-.9-.91-.13,0-.25,0-.38,0-.6,0-.9.33-.91,1.02,0,1.23-.04,2.46.01,3.69.03.68-.17,1.2-.69,1.49-.84.47-.84,1.91-.84,2.89,0,.4.02.65.02,1.12.01.95.05,1.77.05,2.72,0,.87.02,1.74.03,2.62,0,.59.04,1.18.02,1.77" style="fill: none; stroke: #000; stroke-linecap: round; stroke-linejoin: round; stroke-width: .75px;"/>
  <path d="m.55,17.69c1.7.1,3.41.07,5.11,0" style="fill: none; stroke: #000; stroke-linecap: round; stroke-linejoin: round; stroke-width: .75px;"/>
  <path d="m5.64,10.05c-1.04-.19-2.09-.09-3.13-.1-.65,0-1.41-.02-2.1.04" style="fill: none; stroke: #000; stroke-linecap: round; stroke-linejoin: round; stroke-width: .75px;"/>
</svg>